<svg width="69" height="42" viewBox="0 0 69 42" fill="none" xmlns="http://www.w3.org/2000/svg">
<path d="M0 3C0 1.34315 1.34315 0 3 0H66C67.6569 0 69 1.34315 69 3V39C69 40.6569 67.6569 42 66 42H3C1.34315 42 0 40.6569 0 39V3Z" fill="#F8F9FA"/>
<path d="M39 21C39 16.0294 43.0294 12 48 12C52.9706 12 57 16.0294 57 21C57 25.9706 52.9706 30 48 30C43.0294 30 39 25.9706 39 21Z" fill="#3F3B3D"/>
<path d="M50.4653 21.4668V22.6592C50.4653 23.3001 50.408 23.8408 50.2935 24.2812C50.1789 24.7217 50.0142 25.0762 49.7993 25.3447C49.5845 25.6133 49.3249 25.8084 49.0205 25.9302C48.7197 26.0483 48.3796 26.1074 48 26.1074C47.6992 26.1074 47.4217 26.0698 47.1675 25.9946C46.9132 25.9194 46.6841 25.7995 46.48 25.6348C46.2795 25.4665 46.1076 25.248 45.9644 24.9795C45.8211 24.7109 45.7119 24.3851 45.6367 24.002C45.5615 23.6188 45.5239 23.1712 45.5239 22.6592V21.4668C45.5239 20.8258 45.5812 20.2887 45.6958 19.8555C45.814 19.4222 45.9805 19.0749 46.1953 18.8135C46.4102 18.5485 46.668 18.3587 46.9688 18.2441C47.2731 18.1296 47.6133 18.0723 47.9893 18.0723C48.2936 18.0723 48.5729 18.1099 48.8271 18.1851C49.085 18.2567 49.3141 18.373 49.5146 18.5342C49.7152 18.6917 49.8853 18.903 50.0249 19.168C50.1681 19.4294 50.2773 19.7498 50.3525 20.1294C50.4277 20.509 50.4653 20.9548 50.4653 21.4668ZM49.4663 22.8203V21.3003C49.4663 20.9494 49.4448 20.6414 49.4019 20.3765C49.3625 20.1079 49.3034 19.8787 49.2246 19.689C49.1458 19.4992 49.0456 19.3452 48.9238 19.2271C48.8057 19.1089 48.6678 19.0229 48.5103 18.9692C48.3563 18.9119 48.1826 18.8833 47.9893 18.8833C47.7529 18.8833 47.5435 18.9281 47.3608 19.0176C47.1782 19.1035 47.0243 19.2414 46.8989 19.4312C46.7772 19.6209 46.6841 19.8698 46.6196 20.1777C46.5552 20.4857 46.5229 20.8599 46.5229 21.3003V22.8203C46.5229 23.1712 46.5426 23.481 46.582 23.7495C46.625 24.0181 46.6877 24.2508 46.77 24.4478C46.8524 24.6411 46.9526 24.8005 47.0708 24.9258C47.189 25.0511 47.325 25.1442 47.479 25.2051C47.6366 25.2624 47.8102 25.291 48 25.291C48.2435 25.291 48.4565 25.2445 48.6392 25.1514C48.8218 25.0583 48.974 24.9132 49.0957 24.7163C49.221 24.5158 49.3141 24.2598 49.375 23.9482C49.4359 23.6331 49.4663 23.2572 49.4663 22.8203Z" fill="white"/>
<g clip-path="url(#clip0_1_8)">
<path d="M14.6059 15H12V13H16.3941L16.8429 17H28V22.9384L15.7694 25.3694L14.6059 15ZM27.5 30C26.6716 30 26 29.3284 26 28.5C26 27.6716 26.6716 27 27.5 27C28.3284 27 29 27.6716 29 28.5C29 29.3284 28.3284 30 27.5 30ZM17.5 30C16.6716 30 16 29.3284 16 28.5C16 27.6716 16.6716 27 17.5 27C18.3284 27 19 27.6716 19 28.5C19 29.3284 18.3284 30 17.5 30Z" fill="black"/>
</g>
<defs>
<clipPath id="clip0_1_8">
<rect width="17" height="17" fill="white" transform="translate(12 13)"/>
</clipPath>
</defs>
</svg>
